<?xml version="1.0" standalone="no"?>
<!DOCTYPE svg PUBLIC "-//W3C//DTD SVG 20010904//EN"
 "http://www.w3.org/TR/2001/REC-SVG-20010904/DTD/svg10.dtd">
<svg version="1.0" xmlns="http://www.w3.org/2000/svg"
 width="1024.000000pt" height="1024.000000pt" viewBox="0 0 1024.000000 1024.000000"
 preserveAspectRatio="xMidYMid meet">
<metadata>
Created by potrace 1.14, written by Peter Selinger 2001-2017
</metadata>
<g transform="translate(0.000000,1024.000000) scale(0.100000,-0.100000)"
fill="#000000" stroke="none">
<path d="M2635 8832 c-3 -3 -5 -17 -5 -31 0 -21 -2 -23 -10 -11 -8 13 -10 12
-11 -5 -1 -11 -1 -23 0 -27 0 -5 -6 -8 -14 -8 -8 0 -14 -3 -14 -7 1 -5 0 -11
-1 -15 -1 -5 -3 -14 -4 -20 -1 -7 -7 -12 -14 -10 -11 2 -16 -11 -13 -32 3 -15
-21 -36 -33 -29 -6 4 -5 -1 3 -10 12 -15 11 -17 -9 -17 -20 0 -21 -2 -9 -17 7
-10 9 -15 5 -11 -14 12 -36 -12 -36 -39 0 -16 -4 -22 -12 -17 -8 5 -9 2 -5
-10 4 -10 3 -15 -3 -11 -6 3 -10 1 -10 -5 0 -6 -5 -8 -12 -4 -8 5 -8 2 1 -10
12 -15 12 -17 0 -14 -8 2 -13 -4 -13 -14 1 -10 -2 -18 -8 -18 -5 0 -6 -4 -3
-10 3 -5 0 -7 -9 -4 -11 4 -14 0 -11 -13 2 -11 -1 -26 -7 -34 -8 -11 -8 -10
-4 5 5 16 4 17 -9 6 -8 -7 -12 -17 -9 -22 4 -6 0 -14 -7 -19 -14 -8 -15 -12
-18 -44 -1 -9 -7 -12 -18 -8 -10 3 -15 3 -11 -2 4 -4 3 -14 -2 -21 -6 -6 -10
-16 -9 -20 4 -16 -13 -44 -22 -38 -11 6 -29 -37 -21 -50 3 -5 -2 -6 -12 -3
-12 5 -16 2 -14 -11 2 -9 -2 -16 -9 -15 -7 2 -10 -4 -7 -12 4 -8 1 -15 -6 -15
-7 0 -10 -7 -6 -15 3 -8 1 -15 -5 -15 -6 0 -7 -4 -4 -10 4 -6 -1 -7 -11 -3
-11 4 -15 2 -11 -4 4 -6 0 -16 -8 -23 -8 -7 -15 -19 -15 -27 0 -9 -5 -11 -12
-7 -9 5 -9 2 1 -9 11 -14 11 -17 0 -17 -8 0 -20 -9 -27 -21 -8 -12 -9 -19 -4
-15 5 3 9 -1 9 -8 0 -8 -6 -12 -13 -9 -6 2 -15 0 -19 -6 -3 -6 -1 -11 6 -11
16 0 1 -15 -14 -15 -7 0 -11 -8 -9 -16 1 -9 -5 -22 -13 -29 -8 -7 -15 -19 -15
-26 0 -8 -7 -14 -16 -14 -11 0 -15 -8 -12 -27 2 -17 -2 -27 -9 -26 -6 1 -14
-9 -17 -22 -4 -14 -11 -25 -17 -25 -7 0 -6 6 2 18 13 15 12 16 -2 4 -10 -7
-16 -25 -15 -41 2 -23 -2 -27 -16 -23 -14 3 -17 0 -12 -12 4 -11 1 -16 -12
-16 -17 0 -16 -1 2 -15 16 -13 16 -14 2 -9 -14 5 -18 1 -18 -16 0 -11 -4 -18
-10 -15 -5 3 -11 -1 -11 -9 -3 -35 -5 -41 -17 -39 -6 2 -14 -8 -18 -22 -3 -14
-9 -25 -13 -25 -3 0 -12 -9 -19 -21 -11 -17 -11 -20 0 -14 7 3 5 0 -4 -8 -10
-8 -18 -22 -18 -31 0 -10 -4 -15 -9 -12 -5 3 -12 -1 -15 -10 -4 -10 -2 -13 6
-8 7 4 8 3 4 -4 -4 -7 -14 -12 -22 -12 -8 0 -12 -4 -9 -10 3 -5 1 -10 -4 -10
-6 0 -10 -6 -9 -12 2 -7 -5 -12 -14 -12 -10 1 -15 -3 -12 -8 3 -5 3 -21 -1
-36 -5 -21 -8 -23 -17 -11 -7 11 -9 9 -5 -8 5 -21 -3 -28 -25 -24 -4 0 -5 -11
-2 -24 4 -23 -4 -30 -29 -26 -4 1 -3 -9 4 -21 6 -13 8 -20 5 -16 -13 11 -42
-26 -38 -47 3 -17 2 -17 -7 -5 -6 8 -11 13 -12 10 -7 -46 -7 -70 0 -65 5 3 12
1 16 -4 4 -7 15 -7 30 -1 17 6 25 6 25 -1 0 -6 6 -7 12 -3 17 11 48 12 48 3 0
-5 8 -5 17 -2 23 9 66 8 81 -1 7 -4 12 -3 12 3 0 7 8 7 23 2 12 -5 31 -5 42
-1 11 4 26 3 33 -3 9 -7 16 -7 24 1 8 8 17 8 30 1 10 -5 18 -6 18 -2 0 4 11 8
25 8 14 0 25 -4 25 -9 0 -6 5 -5 12 2 7 7 17 8 29 2 11 -7 20 -7 24 0 4 7 13
7 26 0 10 -6 19 -7 19 -3 0 4 11 8 25 8 14 0 25 -4 25 -9 0 -6 5 -5 12 2 7 7
17 8 29 2 11 -7 20 -7 24 0 4 7 13 7 26 0 10 -6 19 -7 19 -3 0 4 11 8 25 8 14
0 25 -4 25 -9 0 -6 5 -5 12 2 7 7 17 8 29 2 11 -7 20 -7 24 0 4 7 13 7 26 0
10 -6 19 -7 19 -3 0 4 11 8 25 8 14 0 25 -4 25 -9 0 -6 5 -5 12 2 7 7 17 8 29
2 11 -7 20 -7 24 0 4 7 13 7 26 0 10 -6 19 -7 19 -3 0 4 11 8 25 8 14 0 25 -4
25 -9 0 -6 5 -5 12 2 7 7 17 8 29 2 11 -7 20 -7 24 0 4 7 13 7 26 0 10 -6 19
-7 19 -3 0 4 11 8 25 8 14 0 25 -4 25 -9 0 -6 5 -5 12 2 7 7 17 8 29 2 11 -7
20 -7 24 0 4 7 13 7 26 0 10 -6 19 -7 19 -3 0 4 11 8 25 8 14 0 25 -4 25 -9 0
-6 5 -5 12 2 7 7 17 8 29 2 11 -7 20 -7 24 0 4 7 13 7 26 0 10 -6 19 -7 19 -3
0 4 11 8 25 8 14 0 25 -4 25 -8 0 -5 6 -5 12 -1 14 9 87 9 95 0 3 -3 14 -1 24
4 12 7 20 7 24 0 4 -6 11 -7 17 -4 17 11 78 10 78 0 0 -6 5 -5 12 2 7 7 17 8
30 1 10 -5 18 -6 18 -2 0 4 11 8 25 8 14 0 25 -4 25 -9 0 -6 5 -5 12 2 7 7 17
8 30 1 10 -5 18 -6 18 -2 0 4 16 8 35 8 19 0 35 -4 35 -9 0 -6 5 -5 12 2 7 7
17 8 30 1 10 -5 18 -6 18 -2 0 4 11 8 25 8 14 0 25 -4 25 -9 0 -6 5 -5 12 2 7
7 17 8 30 1 10 -5 18 -6 18 -2 0 4 16 8 35 8 19 0 35 -4 35 -9 0 -6 5 -5 12 2
7 7 17 8 30 1 10 -5 18 -6 18 -2 0 4 11 8 25 8 14 0 25 -4 25 -9 0 -6 5 -5 12
2 7 7 17 8 30 1 10 -5 18 -6 18 -2 0 4 16 8 35 8 19 0 35 -4 35 -9 0 -6 5 -5
12 2 7 7 17 8 30 1 10 -5 18 -6 18 -2 0 4 11 8 25 8 14 0 25 -4 25 -9 0 -6 5
-5 12 2 7 7 17 8 30 1 10 -5 18 -6 18 -2 0 10 52 9 68 -1 7 -4 12 -3 12 3 0 7
8 7 23 2 12 -5 31 -5 42 -1 11 4 26 3 33 -3 9 -7 16 -7 24 1 8 8 17 8 30 1 10
-5 18 -6 18 -2 0 4 11 8 25 8 14 0 25 -4 25 -9 0 -6 5 -5 12 2 7 7 17 8 29 2
11 -7 20 -7 24 0 4 7 13 7 26 0 10 -6 19 -7 19 -3 0 4 11 8 25 8 14 0 25 -4
25 -9 0 -6 5 -5 12 2 7 7 17 8 29 2 11 -7 20 -7 24 0 4 7 13 7 26 0 10 -6 19
-7 19 -3 0 4 11 8 25 8 14 0 25 -4 25 -9 0 -6 5 -5 12 2 7 7 17 8 29 2 11 -7
20 -7 24 0 4 7 13 7 26 0 10 -6 19 -7 19 -3 0 4 11 8 25 8 14 0 25 -4 25 -9 0
-5 6 -4 13 0 6 5 26 8 42 7 46 -4 117 -4 153 0 18 2 36 -1 38 -5 3 -5 11 -5
18 1 7 6 18 6 26 1 7 -4 24 -4 36 0 14 6 26 5 29 0 3 -6 15 -6 30 0 17 6 25 6
25 -1 0 -6 5 -7 12 -3 17 11 58 11 65 1 2 -4 10 -4 17 2 7 6 18 6 26 1 7 -4
24 -4 36 0 14 6 26 5 29 0 3 -6 15 -6 30 0 17 6 25 6 25 -1 0 -6 6 -7 13 -2
16 10 38 10 60 0 10 -4 17 -4 17 2 0 7 8 7 24 1 13 -5 27 -6 30 -2 10 9 46 10
46 0 0 -5 9 -4 19 2 14 7 22 7 26 0 4 -6 12 -7 18 -3 16 10 38 10 60 0 10 -4
17 -4 17 2 0 7 8 7 24 1 13 -5 27 -6 30 -2 10 9 46 10 46 0 0 -5 9 -4 19 2 14
7 22 7 26 0 4 -6 12 -7 18 -3 16 10 38 10 60 0 10 -4 17 -4 17 2 0 7 9 7 25 1
14 -5 25 -6 25 -1 0 9 30 8 47 -2 6 -4 14 -3 18 3 4 6 11 8 16 4 11 -6 81 -7
137 -1 18 2 36 -1 38 -5 3 -5 11 -5 18 1 7 6 18 6 26 1 7 -4 24 -4 36 0 14 6
26 5 29 0 3 -6 15 -6 30 0 17 6 25 6 25 -1 0 -6 5 -7 12 -3 17 11 58 11 65 1
2 -4 10 -4 17 2 7 6 18 6 26 1 7 -4 24 -4 36 0 14 6 26 5 29 0 3 -6 15 -6 30
0 17 6 25 6 25 -1 0 -6 6 -7 13 -2 16 10 38 10 60 0 10 -4 17 -4 17 2 0 7 8 7
24 1 13 -5 27 -6 30 -2 10 9 46 10 46 0 0 -5 9 -4 19 2 14 7 22 7 26 0 4 -6
12 -7 18 -3 16 10 38 10 60 0 10 -4 17 -4 17 2 0 7 8 7 24 1 13 -5 27 -6 30
-2 10 9 46 10 46 0 0 -5 9 -4 19 2 14 7 22 7 26 0 4 -6 12 -7 18 -3 16 10 38
10 60 0 10 -4 17 -4 17 2 0 7 9 7 25 1 14 -5 25 -6 25 -1 0 9 30 8 46 -1 5 -4
16 -3 24 2 7 4 23 5 35 0 12 -5 28 -4 35 0 8 5 22 4 32 -1 12 -6 18 -6 18 0 0
7 8 7 24 1 13 -5 27 -6 30 -2 10 9 46 10 46 0 0 -5 9 -4 19 2 14 7 22 7 26 0
4 -6 12 -7 18 -3 16 10 38 10 60 0 10 -4 17 -4 17 2 0 7 8 7 24 1 13 -5 27 -6
30 -2 10 9 46 10 46 0 0 -5 9 -4 19 2 14 7 22 7 26 0 4 -6 12 -7 18 -3 16 10
38 10 60 0 10 -4 17 -4 17 2 0 7 9 7 25 1 15 -6 26 -6 30 1 4 6 13 6 23 0 9
-5 26 -5 39 0 14 5 25 4 29 -2 4 -7 10 -7 18 0 7 6 18 6 26 1 7 -4 24 -4 36 0
14 6 26 5 29 0 3 -6 15 -6 30 0 17 6 25 6 25 -1 0 -6 6 -7 12 -3 16 10 50 10
65 1 6 -4 14 -3 18 3 4 6 13 7 23 1 9 -5 26 -5 37 -1 11 4 26 3 33 -2 8 -7 12
-7 12 1 0 7 8 8 24 1 13 -5 26 -6 29 -3 8 7 67 10 67 3 0 -8 48 -5 56 3 4 3
15 2 25 -4 11 -5 19 -6 19 -2 0 4 11 8 25 8 14 0 25 -4 25 -9 0 -6 5 -5 12 2
7 7 17 8 29 2 11 -7 20 -7 24 0 4 7 13 7 26 0 10 -6 19 -7 19 -3 0 4 11 8 25
8 14 0 25 -4 25 -10 0 -5 5 -4 12 3 7 7 17 8 29 2 11 -7 20 -7 24 0 4 7 13 7
26 0 10 -6 19 -7 19 -3 0 4 11 8 25 8 14 0 25 -4 25 -10 0 -5 5 -4 12 3 7 7
17 8 29 2 11 -7 20 -7 24 0 4 7 13 7 26 0 10 -6 19 -7 19 -3 0 4 11 8 25 8 14
0 25 -4 25 -9 0 -5 6 -4 13 1 6 5 22 8 35 7 12 0 22 4 22 10 0 6 5 4 10 -4 7
-11 9 1 8 40 -1 30 -7 61 -12 69 -8 11 -8 13 2 7 10 -6 12 3 11 38 -2 25 -8
46 -13 46 -7 0 -7 3 0 8 11 7 15 151 4 150 -19 -1 -21 4 -5 15 14 11 15 16 5
22 -9 5 -11 4 -6 -3 4 -7 2 -12 -3 -12 -6 0 -11 9 -11 20 0 14 5 18 18 14 14
-5 15 -4 2 5 -14 10 -17 26 -19 119 -1 24 -5 41 -9 38 -5 -3 -9 1 -9 9 0 8 4
12 9 9 4 -3 8 2 8 11 0 9 -5 13 -11 9 -8 -4 -8 -1 -1 13 12 22 11 45 -4 64 -6
8 -10 35 -9 62 1 32 -3 47 -11 47 -19 0 -24 14 -12 30 8 12 8 11 3 -5 -5 -16
-4 -18 6 -7 10 9 10 15 2 23 -6 6 -9 18 -6 25 3 8 0 14 -6 14 -7 0 -10 12 -7
33 3 17 3 26 0 19 -3 -6 -10 -10 -15 -6 -5 3 -5 14 2 26 8 15 8 19 0 14 -10
-6 -17 45 -12 77 1 5 -3 6 -8 2 -6 -3 -8 -13 -5 -23 5 -13 4 -14 -4 -3 -6 8
-8 25 -6 38 2 12 0 23 -5 23 -5 0 -12 7 -15 16 -3 8 -2 13 3 9 5 -3 8 3 7 12
-2 9 -8 19 -14 21 -7 2 -12 12 -12 23 0 10 -4 19 -10 19 -5 0 -10 9 -10 20 0
11 -7 20 -15 20 -8 0 -16 6 -16 13 -1 6 -2 19 -3 27 0 8 -7 14 -15 12 -12 -3
-12 -1 -1 13 7 9 9 15 4 14 -23 -4 -32 3 -40 29 -4 15 -6 31 -5 35 1 5 -3 6
-9 2 -9 -5 -14 7 -11 27 0 4 -6 5 -14 2 -9 -4 -15 0 -15 9 0 8 -7 18 -16 21
-8 3 -13 10 -9 15 3 6 -3 8 -14 6 -15 -3 -19 1 -16 16 4 21 -10 26 -18 7 -3
-8 -6 -6 -6 5 -1 24 -34 58 -59 60 -11 0 -18 5 -16 9 3 5 10 5 16 2 7 -4 8 -2
4 5 -4 6 -12 9 -17 6 -5 -4 -9 -1 -9 6 0 8 -5 7 -17 -2 -15 -13 -15 -12 -4 10
7 13 8 21 3 17 -15 -9 -42 4 -42 19 0 9 -8 12 -21 10 -15 -3 -19 0 -15 10 3 9
-1 15 -10 15 -9 0 -12 5 -8 13 5 9 4 9 -6 0 -15 -14 -40 -6 -40 13 0 8 -9 14
-20 14 -11 0 -20 5 -20 10 0 6 -6 10 -14 10 -8 0 -17 6 -19 13 -4 10 -6 10 -6
0 -1 -7 -6 -13 -12 -13 -5 0 -8 4 -5 8 2 4 1 14 -5 22 -5 9 -9 10 -9 3 0 -8
-9 -9 -27 -4 -16 5 -27 14 -25 21 2 7 -3 10 -11 7 -8 -3 -20 -1 -28 3 -8 5
-19 4 -26 -2 -10 -8 -13 -6 -13 7 0 15 -2 16 -17 4 -14 -12 -16 -12 -11 1 4
12 -2 16 -25 17 l-31 1 25 -14 c13 -7 20 -13 16 -14 -5 0 -18 6 -30 13 -17 9
-643 12 -3029 13 -1655 0 -3010 -2 -3013 -4z m6961 -1117 c-3 -23 -12 -26 -13
-5 -1 11 2 20 7 20 4 0 7 -7 6 -15z m31 -340 c0 -8 -4 -12 -9 -9 -4 3 -8 9 -8
15 0 5 4 9 8 9 5 0 9 -7 9 -15z m-4 -40 c4 -8 3 -16 -1 -19 -4 -3 -9 4 -9 15
-2 23 3 25 10 4z m7 -50 c0 -8 -4 -15 -10 -15 -5 0 -7 7 -4 15 4 8 8 15 10 15
2 0 4 -7 4 -15z"/>
<path d="M9430 8290 c0 -5 5 -10 11 -10 5 0 7 5 4 10 -3 6 -8 10 -11 10 -2 0
-4 -4 -4 -10z"/>
<path d="M2060 6332 c-19 -2 -39 -8 -45 -14 -7 -8 -6 -9 3 -4 18 11 15 -5 -5
-20 -17 -13 -17 -14 2 -8 19 5 19 5 3 -9 -10 -8 -18 -24 -18 -35 0 -11 -5 -24
-10 -27 -8 -5 -7 -12 2 -23 8 -10 9 -13 1 -9 -14 9 -24 -19 -18 -51 3 -15 -1
-22 -12 -22 -9 0 -13 -6 -9 -15 3 -8 2 -15 -3 -15 -4 0 -8 -7 -8 -15 0 -12 3
-12 15 -3 8 7 3 -5 -11 -25 -14 -21 -23 -45 -20 -53 3 -8 1 -14 -4 -14 -5 0
-9 -8 -9 -17 -1 -10 -5 -27 -9 -37 -6 -14 -5 -17 3 -12 8 5 10 2 6 -8 -3 -9
-10 -13 -15 -10 -5 3 -9 -8 -9 -25 0 -16 -6 -32 -12 -34 -10 -4 -10 -6 0 -6 6
-1 12 -6 12 -12 0 -5 -5 -7 -12 -3 -8 5 -9 2 -5 -9 4 -10 1 -17 -5 -17 -6 0
-8 -3 -5 -7 4 -3 1 -13 -6 -21 -9 -13 -9 -14 1 -8 6 4 12 3 12 -3 0 -5 -5 -13
-11 -17 -6 -3 -9 -14 -6 -24 3 -12 0 -17 -8 -13 -9 3 -13 -3 -11 -21 2 -14 -2
-26 -8 -26 -6 0 -4 -5 4 -10 14 -9 13 -11 -9 -14 -5 0 -13 -5 -18 -10 -4 -5
-3 -6 4 -2 6 3 14 2 18 -4 3 -5 1 -10 -4 -10 -6 0 -11 -13 -11 -29 0 -16 -5
-31 -10 -33 -10 -3 -19 -42 -23 -101 -1 -15 -7 -31 -13 -35 -6 -4 -10 -17 -9
-29 1 -15 -4 -23 -14 -23 -14 0 -14 -2 -1 -10 13 -8 13 -11 1 -22 -12 -11 -13
-10 -6 2 5 9 4 12 -1 7 -4 -4 -9 -20 -10 -35 -3 -58 -3 -59 -15 -42 -9 12 -10
12 -5 -3 3 -10 1 -27 -4 -37 -7 -13 -7 -21 0 -25 6 -4 8 -11 4 -16 -3 -5 -10
-6 -16 -3 -6 4 -8 2 -4 -4 3 -6 2 -13 -4 -17 -5 -3 -10 -12 -10 -18 0 -7 4 -6
10 3 5 8 10 10 10 5 0 -6 -5 -16 -11 -22 -6 -6 -9 -19 -7 -29 2 -11 -3 -25
-12 -31 -13 -11 -13 -14 0 -23 13 -8 13 -10 -1 -10 -12 0 -15 -9 -14 -35 2
-22 -3 -39 -14 -47 -14 -12 -15 -11 -1 7 11 16 11 17 0 8 -17 -16 -23 -46 -7
-36 8 4 7 1 -1 -9 -7 -9 -9 -24 -5 -34 6 -16 4 -17 -8 -7 -12 10 -15 6 -16
-20 -4 -75 -10 -100 -27 -109 -14 -8 -15 -12 -5 -18 8 -6 10 -13 3 -22 -5 -7
-9 -25 -8 -40 1 -19 -3 -25 -13 -21 -11 4 -12 -1 -7 -21 5 -22 4 -25 -12 -20
-19 7 -19 6 0 -8 17 -14 17 -15 1 -32 -10 -10 -19 -33 -20 -52 0 -18 -5 -37
-10 -41 -4 -4 -5 -3 -1 4 3 6 2 14 -3 17 -12 8 -8 -37 4 -46 6 -5 5 -8 -2 -8
-7 0 -13 -11 -13 -25 0 -14 -4 -25 -9 -25 -5 0 -12 -7 -15 -16 -5 -12 -2 -15
11 -10 16 5 16 5 2 -6 -20 -16 -31 -58 -16 -58 7 0 6 -4 -3 -9 -8 -6 -17 -8
-21 -6 -3 3 -4 -11 -2 -30 2 -24 -1 -35 -9 -35 -9 0 -9 -3 2 -10 12 -8 12 -10
-3 -16 -9 -3 -17 -10 -17 -15 0 -4 8 -5 17 -2 12 5 11 1 -5 -15 -13 -13 -19
-28 -15 -38 5 -13 3 -15 -7 -9 -10 6 -11 4 -4 -6 13 -22 13 -38 0 -33 -7 3
-13 -1 -13 -8 -1 -16 -11 -81 -14 -88 -1 -3 -1 -9 0 -13 1 -5 -3 -6 -8 -3 -13
8 -21 -20 -9 -32 6 -6 2 -15 -14 -27 -12 -10 -16 -15 -8 -12 11 3 16 -2 18
-16 1 -16 -1 -18 -7 -8 -11 17 -18 3 -16 -32 1 -18 -2 -26 -10 -24 -6 3 -11
-5 -12 -17 -2 -74 -9 -108 -23 -121 -11 -10 -15 -27 -13 -51 2 -32 1 -35 -10
-20 -12 16 -13 15 -13 -6 0 -13 5 -26 10 -30 7 -5 7 -8 -1 -8 -7 0 -13 -9 -13
-21 0 -13 -4 -18 -12 -13 -6 4 -8 3 -4 -4 3 -6 3 -13 -2 -16 -4 -2 -7 -20 -7
-38 1 -18 -3 -36 -9 -40 -6 -4 -11 -23 -11 -43 -1 -20 -9 -45 -18 -56 -18 -20
-22 -34 -9 -25 5 3 9 -1 9 -9 0 -8 -4 -12 -9 -9 -8 5 -10 -7 -11 -54 0 -18 -3
-20 -13 -11 -17 14 -19 -2 -2 -19 9 -9 9 -12 -1 -12 -8 0 -11 -7 -8 -19 3 -12
-1 -22 -9 -25 -8 -3 -14 -11 -14 -18 0 -9 3 -8 10 2 5 8 10 10 10 4 0 -6 -6
-17 -14 -23 -7 -6 -12 -22 -10 -36 1 -15 -4 -29 -14 -35 -10 -5 -12 -10 -4
-10 6 0 12 -5 12 -11 0 -5 -4 -7 -10 -4 -6 3 -10 -5 -10 -19 0 -14 -5 -28 -10
-31 -8 -5 -7 -12 2 -23 11 -13 11 -14 -1 -7 -11 6 -13 3 -9 -13 4 -12 2 -20
-2 -17 -5 3 -11 1 -15 -5 -3 -5 -1 -10 6 -10 8 0 6 -6 -4 -18 -13 -15 -14 -21
-4 -32 7 -8 8 -11 1 -7 -17 9 -25 -18 -11 -33 9 -10 9 -11 0 -6 -14 8 -14 7
-17 -39 -1 -18 -7 -29 -14 -28 -16 4 -16 -14 1 -20 8 -4 9 -6 0 -6 -7 -1 -10
-11 -7 -25 3 -16 -2 -26 -19 -34 -12 -6 -16 -11 -10 -11 17 -1 4 -62 -16 -79
-9 -8 -11 -11 -5 -8 7 3 14 -1 17 -9 4 -9 1 -12 -9 -8 -11 4 -14 -4 -14 -32 0
-20 -4 -34 -9 -30 -5 3 -13 0 -17 -6 -4 -7 -3 -9 4 -5 6 3 13 2 17 -4 3 -5 -1
-10 -9 -10 -10 0 -13 -7 -10 -25 2 -14 0 -25 -5 -25 -5 0 -8 -11 -6 -25 1 -14
-2 -28 -8 -32 -6 -4 -7 -1 -2 8 5 8 4 11 0 6 -5 -4 -10 -24 -12 -44 -2 -20 -9
-44 -16 -52 -7 -8 -7 -12 -1 -8 6 3 11 0 11 -8 0 -8 -3 -14 -6 -13 -19 2 -22
-4 -11 -17 8 -9 9 -15 2 -15 -6 0 -9 -10 -7 -23 4 -21 4 -21 -10 -3 -13 18
-14 17 -10 -12 2 -18 -1 -34 -6 -38 -5 -3 -6 -10 -3 -16 4 -6 1 -14 -5 -18
-14 -8 -19 -29 -20 -78 -1 -18 -5 -31 -9 -28 -9 5 -12 -8 -13 -56 -1 -16 -5
-28 -9 -28 -12 0 -25 -44 -25 -82 1 -26 -3 -38 -13 -38 -8 0 -12 -6 -8 -15 3
-8 2 -15 -2 -15 -4 0 -7 -19 -6 -41 1 -36 -1 -39 -11 -25 -11 14 -13 13 -11
-14 0 -16 4 -30 8 -30 5 0 3 -9 -4 -19 -7 -11 -16 -17 -22 -14 -5 4 -6 1 0 -8
13 -21 14 -39 2 -36 -6 1 -12 -9 -13 -21 -1 -13 -8 -28 -16 -33 -12 -7 -12 -9
1 -9 13 0 13 -2 1 -9 -11 -7 -10 -10 5 -14 16 -4 17 -5 2 -6 -10 0 -18 -9 -18
-19 0 -18 42 -19 1214 -18 668 1 1218 4 1222 8 4 5 1 8 -7 8 -12 0 -12 2 1 10
8 5 14 21 15 37 0 18 5 27 13 25 8 -1 11 2 8 7 -4 5 -3 12 2 15 5 3 7 19 6 35
-1 23 2 31 14 31 15 0 15 2 2 10 -13 9 -13 11 0 19 8 6 11 13 7 17 -4 4 1 16
10 27 17 20 17 20 -1 13 -15 -5 -17 -4 -8 7 7 8 9 17 5 20 -3 4 1 9 10 13 9 3
14 14 12 25 -2 11 5 25 16 33 15 10 17 15 7 18 -10 4 -10 8 -1 20 7 8 10 26 8
41 -4 22 -2 25 12 20 16 -6 17 -5 3 12 -9 11 -10 16 -2 11 8 -5 12 1 12 19 0
14 7 37 16 51 9 13 14 27 10 31 -3 4 2 15 11 26 10 11 13 17 6 14 -6 -4 -15
-2 -18 4 -4 6 2 13 14 16 20 5 21 6 4 20 -10 8 -13 12 -7 9 7 -3 18 2 25 11
10 12 10 14 2 9 -8 -4 -13 -1 -13 8 0 9 4 16 9 16 5 0 12 7 15 16 6 15 4 15
-11 3 -13 -10 -12 -6 3 13 14 18 20 38 18 57 -2 17 2 33 8 37 6 4 8 3 4 -4 -3
-6 -1 -14 6 -18 7 -4 10 -4 6 0 -3 4 -2 21 2 37 7 22 6 28 -3 22 -7 -4 -6 0 2
10 7 9 10 17 5 17 -5 0 -1 5 9 11 15 9 16 13 5 27 -10 12 -10 14 0 8 8 -5 12
2 12 23 0 24 3 29 18 25 14 -5 14 -4 -2 6 -13 9 -15 15 -7 20 10 6 17 29 20
73 1 5 7 5 14 1 6 -4 9 -4 5 1 -4 4 -2 15 5 23 10 13 9 14 -2 7 -11 -6 -13 -4
-7 11 5 10 9 32 11 47 1 15 6 31 10 35 5 4 5 -2 1 -13 -5 -13 -4 -16 2 -10 6
6 12 29 15 53 2 23 8 46 12 50 5 4 5 -2 2 -13 -6 -18 -6 -18 6 -3 14 18 -34
17 772 4 182 -3 492 -9 690 -12 198 -3 437 -7 530 -9 94 -2 241 -4 327 -4 150
-1 157 -2 155 -21 -1 -11 -6 -20 -12 -20 -6 0 -12 -17 -12 -37 -1 -59 -2 -65
-12 -59 -5 3 -11 -1 -14 -8 -3 -8 -1 -17 6 -20 9 -3 9 -5 0 -5 -7 -1 -10 -8
-6 -18 4 -11 3 -14 -5 -9 -9 5 -9 0 -2 -20 9 -23 9 -25 -4 -15 -12 10 -14 8
-12 -13 2 -15 -1 -26 -6 -26 -5 0 -6 -5 -3 -10 4 -6 1 -18 -7 -27 -11 -14 -11
-16 2 -9 8 4 6 0 -4 -8 -18 -15 -15 -21 9 -16 6 1 1 -9 -11 -22 -12 -14 -20
-34 -18 -51 2 -15 -2 -27 -7 -27 -6 0 -8 4 -4 9 3 5 1 12 -4 15 -4 3 -8 -2 -8
-12 0 -55 -4 -83 -11 -78 -5 3 -9 -1 -9 -9 0 -8 3 -12 7 -10 4 2 7 -2 7 -9 0
-8 -6 -12 -12 -10 -7 3 -11 -4 -10 -18 1 -13 -3 -26 -9 -30 -7 -5 -7 -8 2 -8
7 0 10 -5 7 -10 -4 -6 -12 -7 -18 -3 -7 4 -5 -2 3 -12 8 -10 10 -16 3 -12 -7
5 -12 1 -12 -10 -1 -50 -8 -82 -21 -98 -8 -9 -13 -31 -12 -48 2 -24 0 -28 -8
-17 -7 12 -10 8 -10 -17 0 -17 -5 -35 -10 -38 -7 -4 -6 -13 1 -26 6 -12 8 -23
5 -27 -3 -3 -6 0 -6 7 0 7 -4 10 -10 6 -5 -3 -6 -13 -3 -22 5 -12 3 -14 -8 -8
-11 7 -11 5 1 -10 12 -15 12 -17 1 -10 -11 6 -13 2 -9 -18 3 -17 0 -28 -9 -31
-8 -3 -11 -10 -8 -16 4 -6 11 -7 17 -4 7 4 8 2 4 -4 -4 -6 -13 -9 -21 -5 -11
4 -13 1 -9 -11 8 -20 -4 -69 -15 -62 -4 3 -7 -5 -6 -17 1 -12 -3 -28 -9 -36
-9 -12 -8 -13 4 -6 12 6 12 5 3 -5 -6 -7 -9 -19 -6 -28 4 -10 2 -13 -5 -8 -7
4 -12 4 -13 -1 0 -4 -2 -18 -3 -31 -2 -12 0 -23 3 -24 3 -1 529 -2 1169 -3
987 -1 1162 0 1162 12 0 8 4 11 10 8 14 -9 12 9 -2 24 -11 10 -10 11 4 6 13
-5 16 -2 13 14 -2 12 1 21 7 21 6 0 5 6 -3 16 -10 13 -10 17 2 25 8 5 16 9 19
9 3 0 7 12 8 27 1 15 8 30 15 35 9 6 9 8 0 8 -7 0 -13 5 -13 11 0 5 5 7 10 4
6 -3 10 2 10 13 0 10 3 22 7 26 14 13 31 86 21 86 -5 0 -6 5 -3 10 4 6 12 7
18 3 7 -4 6 1 -2 10 -12 16 -12 17 5 10 17 -6 17 -5 5 10 -9 12 -10 17 -2 17
7 0 11 6 10 13 -3 24 1 38 10 33 5 -3 11 5 13 19 3 16 1 22 -6 18 -6 -4 -2 3
8 15 12 14 14 22 7 22 -7 0 -9 5 -6 10 4 6 11 7 17 4 7 -5 9 4 6 25 -2 17 -1
31 3 31 4 0 6 9 4 19 -2 14 1 18 10 15 10 -4 13 2 12 23 -2 16 4 33 13 40 10
8 11 12 3 13 -7 0 -13 4 -13 10 0 5 8 6 18 3 15 -6 15 -5 3 10 -10 13 -10 17
-1 17 7 0 10 7 6 15 -3 8 0 15 7 15 8 0 7 4 -3 11 -12 9 -11 10 6 6 18 -4 20
0 19 29 -2 18 5 43 13 56 9 12 15 36 13 51 -2 22 0 27 11 21 9 -5 9 -2 -2 11
-8 10 -10 16 -4 12 6 -3 16 4 22 18 7 14 7 27 2 30 -5 3 -7 12 -4 20 4 8 11
12 18 8 6 -4 5 1 -3 10 -12 15 -12 17 3 11 11 -4 16 -1 16 11 0 10 -4 13 -12
9 -9 -6 -9 -3 0 9 8 9 11 21 7 27 -3 5 2 10 12 10 10 0 14 4 8 8 -5 4 -11 13
-13 21 -3 12 0 12 13 1 13 -11 14 -10 9 5 -4 10 -1 21 7 26 8 5 9 9 3 9 -6 0
-11 7 -11 15 0 8 4 12 8 10 9 -6 21 24 13 36 -3 5 -1 9 5 9 5 0 8 10 6 22 -3
12 2 30 11 39 8 9 14 23 13 31 -5 37 2 60 15 55 11 -4 13 1 10 20 -3 15 0 30
8 34 7 5 8 9 2 9 -15 0 -11 38 6 53 12 10 12 9 2 -5 -10 -12 -10 -18 -1 -24 7
-4 9 -3 5 4 -3 6 -2 14 4 17 8 5 7 11 -1 21 -7 9 -8 14 -1 14 6 0 9 13 7 28
-2 16 1 35 6 43 8 10 9 9 4 -8 -3 -12 -2 -24 2 -26 9 -6 10 -1 14 81 2 42 6
52 18 47 9 -3 13 -3 9 0 -3 3 -2 22 2 41 5 20 4 34 -2 34 -5 0 -6 6 -1 13 4 6
6 20 4 31 -2 12 1 16 10 11 8 -5 10 -4 5 4 -4 6 -9 24 -11 39 -2 15 -2 21 1
14 3 -6 10 -10 15 -6 5 3 5 12 -1 23 -5 10 -6 22 -2 25 13 13 12 87 -1 80 -7
-3 -3 3 9 13 29 25 39 54 16 46 -16 -6 -16 -5 0 13 14 16 15 23 6 32 -7 7 -8
12 -2 12 6 0 9 15 8 32 -1 18 2 36 8 39 6 4 7 13 2 20 -11 18 -11 109 0 116 5
4 6 1 2 -5 -4 -7 -2 -12 4 -12 14 0 4 51 -12 63 -10 6 -9 7 4 4 23 -8 31 20
10 32 -12 8 -13 10 -3 11 8 0 11 3 8 7 -4 3 -1 13 6 21 10 13 8 14 -13 8 -20
-5 -21 -5 -9 3 20 13 25 85 6 75 -8 -4 -7 -2 1 7 18 20 15 33 -5 18 -17 -13
-17 -13 0 7 19 23 22 44 6 44 -5 0 -7 -5 -3 -12 4 -7 3 -8 -4 -4 -9 5 -7 15 5
34 15 22 15 25 2 15 -13 -11 -15 -10 -14 5 0 9 4 23 9 30 4 6 3 12 -2 12 -5 0
-9 17 -8 38 1 23 -6 45 -17 57 -17 19 -17 20 -1 32 14 10 15 13 3 13 -10 0
-14 9 -13 28 1 15 -6 35 -14 45 -15 16 -14 17 4 11 18 -6 18 -6 1 7 -19 15
-35 75 -17 64 16 -10 12 1 -7 16 -10 8 -14 9 -10 2 4 -6 3 -15 -3 -18 -6 -4
-10 -3 -9 2 1 4 1 26 0 48 -1 30 -4 36 -11 25 -8 -12 -10 -9 -10 12 0 14 -6
29 -12 31 -9 4 -8 6 2 7 10 0 6 6 -10 15 -14 8 -19 14 -11 15 11 0 9 4 -5 15
-13 10 -15 14 -5 15 17 0 5 15 -12 15 -6 0 -12 11 -12 25 0 15 -5 24 -13 22
-8 -1 -11 2 -7 8 3 5 2 10 -2 10 -5 0 -8 13 -7 29 1 23 -2 28 -14 24 -9 -4
-13 -2 -9 5 4 6 21 13 37 17 17 4 28 10 25 15 -3 5 6 7 20 5 14 -1 25 2 25 7
0 6 7 8 15 4 8 -3 15 -1 15 4 0 6 -6 10 -12 10 -9 0 -9 3 1 9 8 5 20 7 28 4 9
-4 11 0 7 12 -6 15 -4 16 14 6 18 -10 21 -9 16 4 -5 11 -2 13 10 9 11 -4 16
-1 16 10 0 9 7 16 15 16 9 0 18 7 21 15 4 8 12 15 20 15 7 0 18 10 25 21 9 17
13 19 20 8 7 -12 9 -11 10 1 1 8 1 18 0 23 0 4 2 6 6 6 22 -4 35 3 45 26 9 21
14 23 26 12 13 -9 14 -9 8 1 -4 7 -1 12 9 12 9 0 13 5 10 10 -4 6 -12 7 -18 4
-7 -4 -8 -3 -4 2 9 9 12 10 50 13 20 2 20 3 4 10 -17 6 -16 8 7 19 14 6 26 16
26 22 0 6 5 8 10 5 9 -6 15 8 11 29 -1 5 6 3 15 -5 10 -8 15 -9 11 -2 -4 6 -3
14 3 18 6 4 7 12 3 18 -4 7 2 5 12 -3 11 -9 16 -10 11 -2 -4 7 -2 12 4 12 6 0
8 5 4 12 -5 8 -2 9 9 5 12 -5 17 -1 17 13 0 11 6 19 13 18 7 -2 11 5 9 16 -2
10 0 16 5 13 15 -9 53 12 53 30 0 10 9 24 21 31 12 7 19 16 16 19 -9 8 27 40
40 35 7 -2 10 4 6 16 -2 11 0 23 6 26 7 5 8 1 4 -11 -4 -12 -3 -15 5 -8 5 6
12 19 14 30 2 11 13 24 24 30 11 6 19 15 17 22 -2 6 5 17 16 23 12 6 21 15 21
20 0 6 9 19 20 30 12 12 17 26 13 37 -5 15 -3 15 10 -2 14 -19 15 -18 13 5 -1
17 4 24 13 22 12 -3 12 -1 0 14 -13 16 -12 17 8 12 16 -4 20 -2 16 8 -3 8 -9
11 -14 8 -15 -9 -10 3 8 17 14 12 16 12 9 -1 -4 -8 -1 -6 8 4 8 10 13 23 10
27 -3 5 0 17 6 26 11 17 11 17 6 -1 -6 -16 -4 -17 9 -6 8 7 12 17 9 22 -3 5 2
16 12 24 11 9 13 12 5 8 -10 -5 -12 -3 -5 7 5 8 9 17 9 21 0 3 4 10 9 15 5 5
6 2 1 -6 -5 -10 -4 -12 4 -7 6 4 9 11 6 15 -6 10 23 71 34 71 5 0 6 11 3 25
-3 17 0 25 10 25 12 0 16 12 20 58 1 6 8 12 17 12 11 0 10 3 -5 15 -16 13 -16
14 -1 9 14 -5 17 0 17 26 0 17 4 29 9 25 5 -3 12 -1 15 4 4 5 1 13 -5 17 -8 5
-9 3 -4 -6 6 -9 4 -11 -5 -5 -10 6 -10 11 3 20 20 14 23 30 5 19 -10 -6 -10
-5 -1 8 7 8 10 18 6 22 -4 4 -2 11 5 15 13 8 18 27 26 114 4 45 3 47 -22 47
-141 3 -7396 4 -7422 2z m6910 -1062 c0 -5 -5 -10 -11 -10 -5 0 -7 5 -4 10 3
6 8 10 11 10 2 0 4 -4 4 -10z m-4870 -885 c0 4 11 0 24 -8 21 -14 26 -15 37
-1 6 8 14 12 17 9 3 -3 12 1 21 8 14 10 14 10 3 -5 -9 -11 -10 -18 -2 -23 5
-3 10 -1 10 6 0 8 4 8 15 -1 13 -11 14 -10 10 2 -4 9 0 15 9 15 8 0 12 -7 9
-16 -3 -11 0 -10 11 3 15 18 16 18 16 2 0 -16 1 -16 16 -2 8 9 23 15 32 15 15
-1 15 -2 0 -6 -28 -7 -21 -19 10 -17 39 3 39 3 22 14 -12 8 -10 9 7 7 12 -2
26 -6 29 -10 11 -11 26 -8 19 3 -3 6 1 7 9 4 9 -3 14 -9 12 -13 -8 -12 76 -2
92 12 13 10 15 9 10 -3 -4 -11 0 -16 13 -16 22 0 24 7 7 26 -11 12 -10 12 5 1
9 -7 17 -10 17 -6 0 4 11 0 24 -8 21 -14 26 -15 37 -1 6 8 14 12 17 9 3 -3 12
1 21 8 14 10 14 10 3 -5 -9 -11 -10 -18 -2 -23 5 -3 10 -1 10 6 0 8 4 8 15 -1
13 -11 14 -10 10 2 -4 9 0 15 9 15 8 0 12 -7 9 -16 -3 -11 0 -10 11 3 15 18
16 18 16 2 0 -16 1 -16 16 -2 8 9 23 15 32 15 15 -1 15 -2 0 -6 -28 -7 -21
-19 10 -17 39 3 39 3 22 14 -12 8 -10 9 7 7 12 -2 26 -6 29 -10 11 -11 26 -8
19 3 -3 6 1 7 9 4 9 -3 14 -9 12 -13 -8 -12 76 -2 92 12 13 10 15 9 10 -3 -4
-11 0 -16 13 -16 22 0 24 7 7 26 -11 12 -10 12 5 1 9 -7 17 -10 17 -6 0 4 10
1 23 -7 23 -15 61 -13 52 3 -3 5 1 6 9 3 9 -3 14 -9 12 -13 -7 -11 75 -4 86 7
12 12 40 4 32 -9 -3 -5 2 -6 10 -3 9 3 13 10 10 15 -3 5 2 6 10 3 9 -3 14 -9
12 -13 -8 -12 76 -2 92 12 13 10 15 9 10 -4 -5 -12 -1 -15 18 -11 13 2 21 8
18 13 -3 5 2 6 10 3 9 -3 14 -9 12 -13 -7 -11 75 -4 86 7 12 12 40 4 32 -9 -3
-5 2 -6 10 -3 9 3 13 10 10 15 -3 5 2 6 10 3 9 -3 14 -9 12 -13 -8 -12 76 -2
92 12 13 10 15 9 10 -3 -4 -12 2 -15 31 -13 49 2 48 2 31 13 -12 8 -10 9 7 7
12 -2 26 -6 29 -10 11 -11 26 -8 19 3 -3 6 1 7 9 4 9 -3 14 -9 12 -13 -8 -12
76 -2 92 12 13 10 15 9 10 -3 -4 -11 0 -16 13 -16 22 0 24 7 7 26 -11 12 -10
12 5 1 9 -7 17 -10 17 -6 0 4 11 0 24 -8 21 -14 26 -15 37 -1 6 8 14 12 17 9
3 -3 12 1 21 8 14 10 14 10 3 -5 -9 -11 -10 -18 -2 -23 5 -3 10 -1 10 6 0 8 4
8 15 -1 13 -11 14 -10 10 2 -4 9 0 15 9 15 8 0 12 -7 9 -16 -3 -11 0 -10 11 3
16 20 16 20 16 0 0 -13 3 -15 8 -6 5 7 18 14 31 17 12 2 19 0 16 -4 -2 -5 4
-11 15 -14 22 -6 28 8 8 17 -7 2 -3 4 9 2 12 -1 26 -5 29 -9 11 -11 26 -8 19
3 -3 6 1 7 9 4 9 -3 14 -9 11 -14 -2 -4 7 -5 20 -2 20 3 25 1 22 -14 -1 -11
-7 -25 -11 -33 -7 -11 -6 -12 5 -6 12 8 12 6 0 -8 -7 -9 -11 -23 -8 -31 3 -8
0 -20 -8 -26 -7 -6 -11 -20 -7 -33 5 -19 3 -20 -10 -10 -12 11 -14 7 -13 -27
1 -28 -3 -40 -12 -40 -12 0 -11 -3 1 -16 21 -21 20 -23 -6 -17 -18 4 -20 2 -9
-5 13 -9 13 -13 0 -28 -12 -16 -12 -17 1 -9 13 8 13 7 1 -8 -7 -9 -10 -17 -5
-17 4 0 -1 -7 -12 -16 -19 -15 -19 -16 1 -10 20 6 20 6 1 -9 -11 -8 -14 -15
-8 -15 7 0 12 -5 12 -11 0 -5 -4 -7 -10 -4 -10 6 -12 -1 -13 -42 0 -13 -6 -23
-13 -23 -8 0 -14 -5 -14 -11 0 -5 4 -8 9 -4 5 3 13 1 16 -5 4 -6 1 -9 -5 -8
-14 3 -22 -22 -22 -72 0 -30 -1 -32 -9 -12 -4 12 -10 22 -12 22 -2 0 -3 -10
-4 -22 -2 -79 -8 -108 -21 -108 -9 0 -11 -7 -7 -20 4 -13 2 -20 -7 -20 -8 0
-9 -3 -3 -8 6 -4 11 -16 12 -27 l2 -20 -16 20 c-12 16 -14 16 -10 3 3 -10 2
-20 -4 -24 -6 -4 -6 -11 2 -20 8 -10 8 -14 1 -14 -7 0 -9 -7 -5 -17 5 -12 3
-14 -8 -8 -12 8 -12 6 0 -8 11 -14 11 -18 -4 -23 -13 -5 -14 -9 -3 -15 10 -7
10 -9 -3 -9 -12 0 -15 -7 -11 -25 2 -15 0 -25 -7 -25 -7 0 -10 -3 -7 -8 2 -4
-84 -6 -192 -5 -204 1 -2031 15 -2184 16 l-87 0 2 29 c1 15 5 28 9 28 4 0 4 7
1 17 -4 10 -2 14 4 10 6 -4 13 2 16 13 3 11 1 20 -4 20 -5 0 -9 5 -9 11 0 6 7
9 15 6 11 -5 12 -1 5 18 -6 16 -6 27 2 31 7 5 8 3 3 -6 -6 -9 -4 -11 4 -5 9 5
10 10 2 18 -6 6 -11 16 -11 21 0 6 5 4 10 -4 7 -11 10 -7 10 17 0 26 3 31 18
27 14 -5 14 -3 -2 7 -18 11 -19 12 -1 25 10 7 15 20 12 28 -4 9 -2 18 4 22 6
4 6 11 -2 20 -10 13 -6 18 13 15 11 -1 21 46 14 64 -3 10 1 15 12 15 15 0 15
2 2 10 -12 7 -12 10 -1 10 7 0 11 6 7 15 -3 8 -1 15 5 15 5 0 7 12 5 26 -4 19
-2 23 7 15 9 -7 13 -5 13 9 0 10 -5 16 -11 14 -5 -3 -1 2 9 10 11 9 15 16 9
16 -6 0 -9 9 -6 20 3 11 10 17 15 14 6 -4 4 4 -3 17 -11 21 -10 22 2 12 12
-10 15 -6 16 25 0 20 6 38 13 40 9 3 9 7 -1 13 -11 7 -10 9 4 9 9 0 17 4 17
10 0 5 -8 6 -17 3 -11 -5 -9 1 6 16 15 15 19 26 13 30 -11 7 -1 31 14 34 4 1
9 10 9 19 1 10 -3 14 -9 11 -6 -4 -5 1 3 10 7 9 11 24 7 32 -3 8 -1 15 4 15 6
0 10 -5 10 -12 0 -6 3 -8 6 -5 4 4 1 13 -5 21 -10 12 -8 14 15 11 24 -2 26 -1
11 9 -14 11 -12 13 14 13 19 0 25 -3 17 -9 -9 -5 -5 -8 13 -8 14 0 31 6 38 13
11 10 13 9 9 -3 -4 -11 1 -16 13 -16 22 0 24 7 7 26 -11 12 -10 12 5 1 9 -7
17 -10 17 -6z m382 1 c7 4 8 2 4 -5 -9 -13 -26 -5 -25 12 0 9 2 8 6 -1 2 -6
10 -9 15 -6z m480 0 c7 4 8 2 4 -5 -9 -13 -26 -5 -25 12 0 9 2 8 6 -1 2 -6 10
-9 15 -6z m239 0 c5 3 9 0 9 -6 0 -15 -23 -7 -26 8 -1 7 0 8 3 2 2 -5 9 -8 14
-4z m161 0 c7 4 8 2 4 -5 -9 -13 -26 -5 -25 12 0 9 2 8 6 -1 2 -6 10 -9 15 -6z
m159 0 c5 3 9 0 9 -6 0 -15 -23 -7 -26 8 -1 7 0 8 3 2 2 -5 9 -8 14 -4z m161
0 c7 4 8 2 4 -5 -9 -13 -26 -5 -25 12 0 9 2 8 6 -1 2 -6 10 -9 15 -6z m93 -4
c-3 -3 -11 0 -18 7 -9 10 -8 11 6 5 10 -3 15 -9 12 -12z m147 4 c7 4 8 2 4 -5
-9 -13 -26 -5 -25 12 0 9 2 8 6 -1 2 -6 10 -9 15 -6z m-4692 -906 c0 -5 -5
-10 -11 -10 -5 0 -7 5 -4 10 3 6 8 10 11 10 2 0 4 -4 4 -10z m7270 0 c0 -5 -2
-10 -4 -10 -3 0 -8 5 -11 10 -3 6 -1 10 4 10 6 0 11 -4 11 -10z m-195 -820 c3
-5 1 -10 -4 -10 -6 0 -11 5 -11 10 0 6 2 10 4 10 3 0 8 -4 11 -10z m-95 -356
c0 -8 -19 -13 -24 -6 -3 5 1 9 9 9 8 0 15 -2 15 -3z m-7390 -264 c0 -5 -5 -10
-11 -10 -5 0 -7 5 -4 10 3 6 8 10 11 10 2 0 4 -4 4 -10z m2403 -75 c-3 -9 -8
-14 -10 -11 -3 3 -2 9 2 15 9 16 15 13 8 -4z m-2460 -120 c-3 -9 -8 -14 -10
-11 -3 3 -2 9 2 15 9 16 15 13 8 -4z m2320 -320 c-3 -9 -8 -14 -10 -11 -3 3
-2 9 2 15 9 16 15 13 8 -4z"/>
<path d="M6206 3713 c-6 -14 -5 -15 5 -6 7 7 10 15 7 18 -3 3 -9 -2 -12 -12z"/>
<path d="M9105 5430 c-3 -5 -1 -10 4 -10 6 0 11 5 11 10 0 6 -2 10 -4 10 -3 0
-8 -4 -11 -10z"/>
<path d="M1755 5421 c-3 -5 -2 -12 3 -15 5 -3 9 1 9 9 0 17 -3 19 -12 6z"/>
<path d="M8490 4246 c0 -2 7 -9 15 -16 13 -11 14 -10 9 4 -5 14 -24 23 -24 12z"/>
<path d="M1266 3694 c-8 -21 -8 -39 1 -30 8 7 15 46 9 46 -2 0 -7 -7 -10 -16z"/>
<path d="M7945 1520 c-3 -5 -1 -10 4 -10 6 0 11 5 11 10 0 6 -2 10 -4 10 -3 0
-8 -4 -11 -10z"/>
</g>
</svg>
